<?xml version="1.0" encoding="iso-8859-1"?>
<!-- Generator: Adobe Illustrator 19.0.0, SVG Export Plug-In . SVG Version: 6.00 Build 0)  -->
<svg version="1.1" id="Capa_1" xmlns="http://www.w3.org/2000/svg" xmlns:xlink="http://www.w3.org/1999/xlink" x="0px" y="0px"
	 viewBox="0 0 512 512" style="enable-background:new 0 0 512 512;" xml:space="preserve">
<path style="fill:#53618C;" d="M341.978,512c-12.897,0-23.351-10.321-23.351-23.053V304.687c0-12.732,10.455-23.053,23.351-23.053
	c12.897,0,23.351,10.321,23.351,23.053v184.261C365.329,501.68,354.874,512,341.978,512z"/>
<path style="fill:#5F6E9B;" d="M285.609,512c-12.897,0-23.351-10.321-23.351-23.053V304.687c0-12.732,10.455-23.053,23.351-23.053
	s23.351,10.321,23.351,23.053v184.261C308.96,501.68,298.505,512,285.609,512z"/>
<path style="fill:#BA6746;" d="M471.081,4.477c-8.242-6.808-20.515-5.731-27.411,2.407L331.028,139.782h-34.469L183.917,6.884
	c-6.896-8.138-19.169-9.215-27.411-2.407s-9.334,18.924-2.438,27.061l108.19,127.66v145.487h103.071V159.199l108.191-127.66
	C480.415,23.401,479.323,11.286,471.081,4.477z"/>
<path style="fill:#FF4619;" d="M367.378,96.906l-36.35,42.875h-0.064c0.703,9.867-8.257,17.801-17.226,17.801
	c-9.884,0-17.241-8.242-17.264-17.801l-36.266-42.875l-34.089,19.652l36.138,42.641v145.487H365.33V159.199l32.966-38.899
	L367.378,96.906z"/>
<ellipse style="fill:#BA6746;" cx="313.797" cy="68.088" rx="40.334" ry="39.814"/>
<path style="fill:#632C15;" d="M472.343,29.266H39.658c-6.218,0-11.258-5.04-11.258-11.258S33.44,6.751,39.658,6.751h432.684
	c6.217,0,11.258,5.04,11.258,11.258S478.56,29.266,472.343,29.266z"/>
<path style="fill:#FF4619;" d="M165.806,201.461c-1.917,3.062-5.287,4.932-8.9,4.932c-36.09,0-65.535,0-95.981,0
	c-5.998,0-9.953-6.294-7.302-11.713C84.276,132.037,0.655,69.394,46.5,6.751c38.653,0,77.305,0,115.958,0
	C114.96,71.654,206.438,136.557,165.806,201.461z"/>
<path style="fill:#DC1428;" d="M156.906,206.393c3.612,0,6.983-1.871,8.9-4.932c40.632-64.903-50.846-129.807-3.347-194.71
	c-18.303,0-36.604,0-54.907,0c-45.845,62.643,37.776,125.286,7.123,187.929c-1.326,2.709-5.986,11.713-5.986,11.713
	C131.384,206.393,116.146,206.393,156.906,206.393z"/>
<g>
</g>
<g>
</g>
<g>
</g>
<g>
</g>
<g>
</g>
<g>
</g>
<g>
</g>
<g>
</g>
<g>
</g>
<g>
</g>
<g>
</g>
<g>
</g>
<g>
</g>
<g>
</g>
<g>
</g>
</svg>
